<svg xmlns="http://www.w3.org/2000/svg" viewBox="0 0 1447.31 1152.54"><defs><style>.cls-1{fill:#fff;}</style></defs><title>Лого Evoltech</title><g id="Слой_1" data-name="Слой 1"><path class="cls-1" d="M618.59,979.12l99.5-302.84h14.84l-107.69,329H611.69l-107.43-329h14.83Z" transform="translate(-3.9 -206.5)"/><path class="cls-1" d="M888.29,539.5V320.41q0-51.32,31.71-80.1t85.92-28.77q54.2,0,85.91,28.77t32,79.22v220H1111V320.86q0-44.88-28.75-71.1t-76.33-26.22q-47.58,0-76.21,26.22t-28.64,71.32V539.5Z" transform="translate(-3.9 -206.5)"/><path class="cls-1" d="M1126.38,676.24V895.32q0,51.31-31.71,80.1t-85.91,28.77q-54.21,0-85.92-28.77t-32-79.21v-220h12.78V894.87q0,44.88,28.76,71.1t76.33,26.22q47.57,0,76.21-26.22t28.63-71.32V676.24Z" transform="translate(-3.9 -206.5)"/><path class="cls-1" d="M303.15,1194.64H241.87v162.09h-6.24V1194.64H174.35v-6.24h128.8Z" transform="translate(-3.9 -206.5)"/><path class="cls-1" d="M660.05,1273.26h-84.4v77.23h96.2v6.24H569.41V1188.4H671.85v6.24h-96.2V1267h84.4Z" transform="translate(-3.9 -206.5)"/><path class="cls-1" d="M1055.46,1305.17q-2.43,26-17.92,39.94T995.46,1359q-17.93,0-31.74-9.07t-21.45-25.78q-7.62-16.71-7.74-38.21v-26q0-21.49,7.51-38.44t21.45-26.19q13.93-9.24,32-9.25,26.35,0,42,13.88t18,39.77h-6.24q-2.65-23.24-16.19-35.32t-37.57-12.08q-24.51,0-39.6,18.5t-15.09,49.59v24.75q0,19.88,6.71,35.2t19.25,23.88a49.79,49.79,0,0,0,28.73,8.55q24.16,0,37.75-11.91t16-35.72Z" transform="translate(-3.9 -206.5)"/><path class="cls-1" d="M1451.22,1356.73H1445v-83.47H1337.45v83.47h-6.24V1188.4h6.24V1267H1445V1188.4h6.25Z" transform="translate(-3.9 -206.5)"/></g><g id="Слой_2" data-name="Слой 2"><rect class="cls-1" x="161.1" y="5.45" width="16" height="392.9"/><rect class="cls-1" x="1270.8" y="3.26" width="16" height="330.45"/><rect class="cls-1" x="160.85" y="396.16" width="16" height="402.03"/><rect class="cls-1" y="397.66" width="1444.9" height="10"/><rect class="cls-1" x="160.72" y="787.57" width="202.38" height="16"/><rect class="cls-1" x="1271.8" y="471.62" width="16" height="326.57"/><rect class="cls-1" x="1271.77" y="787.57" width="174.33" height="16"/><rect class="cls-1" x="496.28" y="3.26" width="16" height="338.26"/><rect class="cls-1" x="714.85" y="3.26" width="16" height="338.26"/><rect class="cls-1" x="161.1" width="202" height="16"/></g></svg>