<svg viewBox="0 0 202 160" fill="none" xmlns="http://www.w3.org/2000/svg"><path d="M85.6262 107.107L99.4865 64.9472H101.554L86.5525 110.749H84.665L69.7 64.9472H71.7659L85.6262 107.107Z"/><path d="M123.195 45.9052V15.4043C123.195 10.6412 124.668 6.92413 127.613 4.25303C130.557 1.58193 134.547 0.246845 139.581 0.247773C144.615 0.247773 148.604 1.58286 151.548 4.25303C154.493 6.9232 155.979 10.5994 156.006 15.2817V45.9094H154.219V15.4669C154.219 11.3016 152.884 8.00212 150.214 5.56862C147.544 3.13512 144 1.91837 139.581 1.91837C135.163 1.91837 131.624 3.13512 128.965 5.56862C126.306 8.00212 124.976 11.3118 124.976 15.4975V45.9052H123.195Z"/><path d="M156.361 64.9416V95.4411C156.361 100.203 154.889 103.92 151.944 106.592C148.999 109.264 145.01 110.599 139.977 110.598C134.942 110.598 130.953 109.263 128.008 106.592C125.063 103.922 123.577 100.246 123.551 95.565V64.9374H125.331V95.3785C125.331 99.5438 126.666 102.843 129.337 105.277C132.008 107.71 135.552 108.927 139.97 108.927C144.387 108.927 147.926 107.71 150.586 105.277C153.246 102.843 154.575 99.5336 154.574 95.3479V64.9416H156.361Z"/><path d="M41.6855 137.111H33.1492V159.677H32.2799V137.111H23.7436V136.243H41.6855V137.111Z"/><path d="M91.4015 148.057H79.6446V158.808H93.0453V159.677H78.7754V136.243H93.0453V137.111H79.6446V147.185H91.4015V148.057Z"/><path d="M146.482 152.499C146.256 154.912 145.424 156.766 143.986 158.059C142.547 159.353 140.593 159.998 138.124 159.993C136.459 159.993 134.985 159.572 133.703 158.73C132.42 157.889 131.424 156.692 130.715 155.141C130.007 153.59 129.648 151.817 129.637 149.822V146.202C129.637 144.208 129.985 142.424 130.683 140.851C131.38 139.278 132.376 138.062 133.671 137.205C134.964 136.347 136.45 135.918 138.128 135.917C140.575 135.917 142.525 136.561 143.979 137.849C145.432 139.137 146.268 140.983 146.486 143.386H145.617C145.371 141.229 144.619 139.59 143.362 138.469C142.104 137.348 140.36 136.787 138.128 136.787C135.852 136.787 134.013 137.646 132.612 139.363C131.211 141.08 130.51 143.381 130.51 146.266V149.712C130.51 151.557 130.822 153.19 131.445 154.612C132.068 156.034 132.962 157.142 134.126 157.937C135.306 158.735 136.704 159.151 138.128 159.127C140.372 159.127 142.125 158.574 143.387 157.469C144.649 156.364 145.392 154.706 145.616 152.496L146.482 152.499Z"/><path d="M201.611 159.677H200.745V148.057H185.763V159.677H184.894V136.243H185.763V147.185H200.745V136.243H201.616L201.611 159.677Z"/><path d="M24.064 0.361969H22.9761V55.0601H24.064V0.361969Z"/><path d="M179.921 0H178.833V46.0041H179.921V0Z"/><path d="M24.064 54.6981H22.9761V110.667H24.064V54.6981Z"/><path d="M201.274 55.074H0V56.1334H201.274V55.074Z"/><path d="M47.2296 0H22.9455V1.08728H47.2296V0Z"/><path d="M47.2296 109.76H22.9455V110.847H47.2296V109.76Z"/><path d="M178.834 65.2034H177.747V110.667H178.834V65.2034Z"/><path d="M201.999 109.76H177.714V110.847H201.999V109.76Z"/><path d="M70.7907 0H69.7028V47.0913H70.7907V0Z"/><path d="M101.236 0H100.148V47.0913H101.236V0Z"/></svg>
