<?xml version="1.0" standalone="no"?>
<!DOCTYPE svg PUBLIC "-//W3C//DTD SVG 20010904//EN"
 "http://www.w3.org/TR/2001/REC-SVG-20010904/DTD/svg10.dtd">
<svg version="1.0" xmlns="http://www.w3.org/2000/svg"
 width="1080.000000pt" height="1080.000000pt" viewBox="0 0 1080.000000 1080.000000"
 preserveAspectRatio="xMidYMid meet">
<metadata>
Created by potrace 1.14, written by Peter Selinger 2001-2017
</metadata>
<g transform="translate(0.000000,1080.000000) scale(0.100000,-0.100000)"
fill="#000000" stroke="none">
<path d="M0 8105 l0 -2695 430 0 430 0 5 23 c3 12 4 615 3 1340 l-3 1317 653
0 652 0 0 -25 0 -25 -622 -2 -623 -3 -3 -1290 c-1 -709 0 -1300 3 -1312 l5
-23 4935 0 4935 0 0 2695 0 2695 -5400 0 -5400 0 0 -2695z m3430 -1160 l0
-1145 -30 0 -30 0 0 1145 0 1145 30 0 30 0 0 -1145z m1630 0 l0 -1145 -30 0
-30 0 0 1145 0 1145 30 0 30 0 0 -1145z m4218 28 l-3 -1118 -27 -3 -28 -3 0
1120 0 1121 30 0 30 0 -2 -1117z m-1988 1097 c302 -39 527 -180 630 -395 71
-149 70 -130 70 -1019 l0 -796 -45 0 -44 0 -4 803 c-3 713 -5 808 -20 857 -97
320 -411 500 -831 477 -347 -20 -595 -180 -684 -441 l-27 -81 -3 -807 -3 -808
-50 0 -50 0 3 808 c4 899 1 854 75 1012 49 103 174 228 289 287 91 48 224 89
329 102 97 12 275 12 365 1z"/>
<path d="M0 2680 l0 -2680 5400 0 5400 0 0 2680 0 2680 -4940 0 -4940 0 2
-1302 3 -1303 623 -3 622 -2 0 -25 0 -25 -652 0 -653 0 3 1330 2 1330 -435 0
-435 0 0 -2680z m3820 1322 c412 -1144 401 -1114 408 -1107 3 3 170 461 371
1018 l367 1012 57 3 57 3 -28 -78 c-16 -43 -197 -545 -402 -1115 l-374 -1038
-52 0 -51 0 -378 1053 c-208 578 -389 1080 -401 1115 l-24 62 58 0 57 0 335
-928z m2533 126 c3 -714 5 -809 20 -858 97 -320 411 -500 831 -477 347 20 595
180 684 441 l27 81 3 808 3 807 50 0 50 0 -3 -807 c-4 -900 -1 -855 -75 -1013
-49 -103 -174 -228 -288 -287 -147 -75 -319 -113 -515 -113 -396 1 -686 146
-810 405 -71 149 -70 130 -70 1019 l0 796 45 0 44 0 4 -802z m2867 -293 l0
-1085 620 0 620 0 0 -25 0 -25 -650 0 -650 0 0 1110 0 1110 30 0 30 0 0 -1085z"/>
</g>
</svg>
